<svg id="visual" viewBox="0 0 960 540" width="960" height="540" xmlns="http://www.w3.org/2000/svg" xmlns:xlink="http://www.w3.org/1999/xlink" version="1.1"><rect x="0" y="0" width="960" height="540" fill="#060606"></rect><defs><linearGradient id="grad1_0" x1="43.8%" y1="0%" x2="100%" y2="100%"><stop offset="14.444444444444446%" stop-color="#060606" stop-opacity="1"></stop><stop offset="85.55555555555554%" stop-color="#060606" stop-opacity="1"></stop></linearGradient></defs><defs><linearGradient id="grad2_0" x1="0%" y1="0%" x2="56.3%" y2="100%"><stop offset="14.444444444444446%" stop-color="#060606" stop-opacity="1"></stop><stop offset="85.55555555555554%" stop-color="#060606" stop-opacity="1"></stop></linearGradient></defs><g transform="translate(960, 0)"><path d="M0 351C-38.2 326.3 -76.4 301.7 -119 287.3C-161.6 273 -208.7 269 -245.4 245.4C-282.1 221.7 -308.4 178.5 -324.3 134.3C-340.2 90.2 -345.6 45.1 -351 0L0 0Z" fill="#ffc35a"></path></g><g transform="translate(0, 540)"><path d="M0 -351C49.3 -349.5 98.7 -348.1 134.3 -324.3C170 -300.5 191.9 -254.4 219.2 -219.2C246.5 -184 279.2 -159.8 302.1 -125.1C325 -90.4 338 -45.2 351 0L0 0Z" fill="#ffc35a"></path></g></svg>